<svg xmlns="http://www.w3.org/2000/svg" xmlns:xlink="http://www.w3.org/1999/xlink" width="3000" zoomAndPan="magnify" viewBox="0 0 2250 374.999991" height="500" preserveAspectRatio="xMidYMid meet" version="1.0"><defs><g/><clipPath id="324943caa0"><path d="M 78.855469 190 L 139 190 L 139 227 L 78.855469 227 Z M 78.855469 190 " clip-rule="nonzero"/></clipPath><clipPath id="052307cfdd"><path d="M 156 234 L 216 234 L 216 326.957031 L 156 326.957031 Z M 156 234 " clip-rule="nonzero"/></clipPath></defs><g fill="#1f1d36" fill-opacity="1"><g transform="translate(727.51826, 259.412568)"><g><path d="M 10.75 -3.21875 L 23.65625 -6.453125 L 23.65625 -144.109375 L 10.75 -147.328125 L 10.75 -150.546875 L 72.046875 -150.546875 L 72.046875 -147.328125 L 59.140625 -144.109375 L 59.140625 -76.5625 L 111.84375 -140.875 L 95.703125 -147.328125 L 95.703125 -150.546875 L 136.578125 -150.546875 L 136.578125 -147.328125 L 119.375 -140.875 L 81.734375 -94.640625 L 139.796875 -6.453125 L 150.546875 -3.21875 L 150.546875 0 L 120.4375 0 C 113.988281 0 108.503906 -1.609375 103.984375 -4.828125 C 99.472656 -8.054688 95.28125 -12.539062 91.40625 -18.28125 L 59.140625 -67.75 L 59.140625 -6.453125 L 72.046875 -3.21875 L 72.046875 0 L 10.75 0 Z M 10.75 -3.21875 "/></g></g></g><g fill="#1f1d36" fill-opacity="1"><g transform="translate(924.535928, 259.412568)"><g><path d="M -4.296875 -3.21875 L 12.90625 -9.671875 L 72.046875 -152.703125 L 78.5 -152.703125 L 139.796875 -6.453125 L 150.546875 -3.21875 L 150.546875 0 L 124.75 0 C 117.289062 0 111.191406 -1.679688 106.453125 -5.046875 C 101.722656 -8.421875 98.210938 -12.832031 95.921875 -18.28125 L 84.953125 -44.09375 L 33.546875 -44.09375 L 19.359375 -9.671875 L 35.484375 -3.21875 L 35.484375 0 L -4.296875 0 Z M 35.703125 -49.46875 L 82.8125 -49.46875 L 59.140625 -106.03125 Z M 35.703125 -49.46875 "/></g></g></g><g fill="#1f1d36" fill-opacity="1"><g transform="translate(1119.402619, 259.412568)"><g><path d="M 30.109375 -113.984375 L 30.109375 -9.671875 L 47.3125 -3.21875 L 47.3125 0 L 6.453125 0 L 6.453125 -3.21875 L 23.65625 -9.671875 L 23.65625 -143.03125 L 8.609375 -147.328125 L 8.609375 -150.546875 L 31.1875 -150.546875 C 38.78125 -150.546875 44.726562 -149.179688 49.03125 -146.453125 C 53.332031 -143.734375 57.421875 -140.082031 61.296875 -135.5 L 130.125 -54.84375 L 130.125 -140.875 L 112.921875 -147.328125 L 112.921875 -150.546875 L 153.78125 -150.546875 L 153.78125 -147.328125 L 136.578125 -140.875 L 136.578125 3.21875 L 130.125 3.21875 Z M 30.109375 -113.984375 "/></g></g></g><g fill="#1f1d36" fill-opacity="1"><g transform="translate(1327.174517, 259.412568)"><g><path d="M 10.75 -3.21875 L 23.65625 -6.453125 L 23.65625 -144.109375 L 10.75 -147.328125 L 10.75 -150.546875 L 65.59375 -150.546875 C 91.257812 -150.546875 110.9375 -143.953125 124.625 -130.765625 C 138.320312 -117.578125 145.171875 -99.082031 145.171875 -75.28125 C 145.171875 -51.476562 138.320312 -32.976562 124.625 -19.78125 C 110.9375 -6.59375 91.257812 0 65.59375 0 L 10.75 0 Z M 65.59375 -5.375 C 78.925781 -5.375 89.25 -10.785156 96.5625 -21.609375 C 103.875 -32.441406 107.53125 -50.332031 107.53125 -75.28125 C 107.53125 -100.226562 103.875 -118.113281 96.5625 -128.9375 C 89.25 -139.757812 78.925781 -145.171875 65.59375 -145.171875 L 59.140625 -145.171875 L 59.140625 -5.375 Z M 65.59375 -5.375 "/></g></g></g><g fill="#1f1d36" fill-opacity="1"><g transform="translate(1529.569144, 259.412568)"><g><path d="M -4.296875 -3.21875 L 12.90625 -9.671875 L 72.046875 -152.703125 L 78.5 -152.703125 L 139.796875 -6.453125 L 150.546875 -3.21875 L 150.546875 0 L 124.75 0 C 117.289062 0 111.191406 -1.679688 106.453125 -5.046875 C 101.722656 -8.421875 98.210938 -12.832031 95.921875 -18.28125 L 84.953125 -44.09375 L 33.546875 -44.09375 L 19.359375 -9.671875 L 35.484375 -3.21875 L 35.484375 0 L -4.296875 0 Z M 35.703125 -49.46875 L 82.8125 -49.46875 L 59.140625 -106.03125 Z M 35.703125 -49.46875 "/></g></g></g><g fill="#1f1d36" fill-opacity="1"><g transform="translate(1724.436003, 259.412568)"><g><path d="M 10.75 -3.21875 L 23.65625 -6.453125 L 23.65625 -144.109375 L 10.75 -147.328125 L 10.75 -150.546875 L 67.75 -150.546875 C 92.125 -150.546875 109.6875 -146.851562 120.4375 -139.46875 C 131.195312 -132.09375 136.578125 -121.804688 136.578125 -108.609375 C 136.578125 -99.722656 134.207031 -92.519531 129.46875 -87 C 124.738281 -81.476562 118.648438 -77.351562 111.203125 -74.625 C 103.304688 -71.613281 94.914062 -70.039062 86.03125 -69.90625 L 86.03125 -68.828125 C 91.332031 -68.535156 95.992188 -67.742188 100.015625 -66.453125 C 110.046875 -63.304688 116.851562 -57.644531 120.4375 -49.46875 L 139.796875 -6.453125 L 150.546875 -3.21875 L 150.546875 0 L 120.4375 0 C 108.6875 0 100.085938 -6.09375 94.640625 -18.28125 L 73.125 -66.671875 L 59.140625 -66.671875 L 59.140625 -6.453125 L 74.203125 -3.21875 L 74.203125 0 L 10.75 0 Z M 67.75 -72.046875 C 77.789062 -72.046875 85.675781 -75.203125 91.40625 -81.515625 C 97.144531 -87.828125 100.015625 -96.859375 100.015625 -108.609375 C 100.015625 -120.367188 97.144531 -129.398438 91.40625 -135.703125 C 85.675781 -142.015625 77.789062 -145.171875 67.75 -145.171875 L 59.140625 -145.171875 L 59.140625 -72.046875 Z M 67.75 -72.046875 "/></g></g></g><path fill="#1f1d36" d="M 426.949219 155.945312 C 406.773438 147.375 386.386719 139.234375 366.917969 129.035156 C 361.324219 126.273438 356.582031 121.882812 353.324219 116.429688 C 348.9375 109.988281 347.449219 101.984375 342.777344 95.753906 C 338.742188 89.875 331.238281 87.609375 327.769531 81.164062 C 327.910156 83.078125 328.121094 86.902344 328.265625 88.8125 C 322.742188 78.617188 311.980469 73.730469 303.34375 66.71875 C 303.34375 68.488281 303.273438 72.03125 303.203125 73.871094 C 297.398438 66.648438 289.113281 62.542969 281.964844 56.875 C 283.238281 61.976562 284.300781 67.214844 287.203125 71.675781 C 282.316406 68.984375 277.363281 66.4375 273.042969 62.894531 C 264.335938 55.035156 251.308594 56.308594 242.105469 49.371094 C 243.949219 55.601562 246.921875 61.480469 252.019531 65.726562 C 241.683594 64.101562 233.894531 56.453125 224.265625 53.125 C 213.082031 53.40625 201.683594 52.910156 191.347656 48.097656 C 194.390625 56.59375 203.027344 60.84375 209.472656 66.507812 C 203.097656 64.949219 196.871094 62.753906 190.851562 60.277344 C 181.011719 56.167969 170.039062 59.144531 160.410156 62.328125 C 169.472656 62.824219 178.746094 63.460938 186.957031 67.851562 C 177.96875 68.632812 168.765625 69.976562 160.695312 74.367188 C 168.835938 74.011719 177.1875 73.519531 185.117188 75.925781 C 197.011719 79.394531 208.691406 84.421875 221.292969 84.707031 C 218.039062 81.519531 214.851562 78.332031 212.304688 74.507812 C 228.375 82.085938 244.796875 89.523438 262.707031 91.503906 C 248.480469 102.125 229.789062 103.898438 212.585938 104.039062 C 219.523438 106.375 226.601562 108.359375 233.542969 110.554688 C 228.65625 113.527344 222.851562 114.234375 217.542969 116.148438 C 222.074219 116.996094 226.746094 117.066406 231.417969 117.351562 C 224.195312 121.601562 216.195312 124.574219 207.773438 124.21875 C 211.171875 125.566406 214.710938 126.484375 218.320312 127.195312 C 215.347656 132.082031 210.957031 135.621094 206.355469 138.878906 C 210.675781 138.949219 215.0625 138.808594 219.382812 138.664062 C 214.144531 148.933594 211.027344 160.476562 211.808594 172.019531 C 214.074219 166.566406 216.054688 160.757812 220.796875 156.863281 C 219.808594 163.945312 219.027344 171.382812 221.578125 178.320312 C 225.894531 192.554688 238.566406 201.832031 249.964844 210.328125 C 247.984375 203.601562 246.285156 196.589844 247.628906 189.511719 C 249.117188 196.519531 251.453125 203.53125 255.0625 209.761719 C 259.664062 217.835938 266.390625 224.277344 271.0625 232.351562 C 271.203125 228.742188 271.273438 225.128906 271.417969 221.445312 L 273.609375 221.445312 C 274.8125 236.742188 278.636719 252.675781 288.125 264.996094 C 294.210938 273.140625 304.335938 277.316406 314.386719 277.105469 C 303.628906 272.503906 298.175781 261.386719 295.628906 250.621094 C 299.664062 252.25 303.699219 253.949219 307.875 255.082031 C 299.378906 246.585938 294.070312 234.335938 297.46875 222.226562 C 299.027344 227.679688 302.636719 231.925781 307.097656 235.183594 C 305.75 230.441406 303.628906 225.484375 304.40625 220.457031 C 305.820312 211.746094 315.519531 209.195312 320.546875 203.035156 C 319.769531 206.222656 318.847656 209.335938 318 212.453125 C 324.085938 209.832031 328.121094 204.734375 332.15625 199.707031 C 340.441406 193.191406 351.765625 192.839844 361.820312 193.757812 C 373.855469 195.953125 385.183594 202.183594 397.640625 202.183594 C 401.464844 202.46875 403.449219 198.644531 405.429688 196.023438 C 412.722656 184.269531 426.242188 177.753906 432.472656 165.222656 C 433.605469 161.183594 430.773438 157.289062 426.949219 155.945312 Z M 327.625 128.257812 C 320.832031 126.628906 316.441406 119.828125 316.722656 112.960938 C 327.058594 119.972656 338.882812 124.21875 350.492188 128.609375 C 342.917969 128.257812 335.203125 128.964844 327.625 128.257812 Z M 327.625 128.257812 " fill-opacity="1" fill-rule="nonzero"/><path fill="#1f1d36" d="M 119.5625 89.523438 C 129.898438 73.234375 150.003906 64.453125 169.046875 66.933594 C 162.394531 68.773438 156.304688 72.3125 151.773438 77.554688 C 158.003906 77.128906 164.304688 77.199219 170.535156 77.980469 C 175.417969 86.902344 184.691406 92.285156 194.25 95.046875 C 191.703125 96.671875 189.082031 98.230469 186.535156 99.789062 C 176.128906 95.1875 163.808594 93.488281 153.046875 97.878906 C 141.933594 102.90625 132.589844 111.472656 120.695312 114.871094 C 112.765625 116.996094 104.339844 117.5625 96.199219 116.078125 C 104.695312 114.164062 113.402344 112.109375 120.625 107.082031 C 130.890625 100.851562 135.988281 89.238281 145.96875 82.652344 C 136.835938 83.574219 127.632812 84.988281 119.5625 89.523438 Z M 119.5625 89.523438 " fill-opacity="1" fill-rule="nonzero"/><path fill="#1f1d36" d="M 175.347656 77.414062 C 184.054688 78.476562 191.703125 83.007812 200.125 84.988281 C 209.046875 87.253906 218.25 87.75 227.382812 87.964844 C 226.460938 86.761719 224.550781 84.28125 223.558594 83.078125 C 233.257812 88.386719 243.949219 91.148438 254.636719 93.34375 C 236.019531 101.703125 214.992188 101.136719 195.171875 98.796875 C 196.941406 97.097656 198.78125 95.46875 200.621094 93.910156 C 190.144531 92.636719 181.152344 86.050781 175.347656 77.414062 Z M 175.347656 77.414062 " fill-opacity="1" fill-rule="nonzero"/><path fill="#1f1d36" d="M 145.472656 106.585938 C 158.003906 103.117188 171.667969 100.851562 184.269531 105.242188 C 189.152344 107.226562 194.039062 109.492188 199.277344 110.625 C 196.375 107.648438 193.542969 104.605469 190.921875 101.347656 C 201.257812 106.234375 213.152344 105.949219 223.132812 111.757812 C 218.109375 112.535156 213.082031 113.171875 208.054688 113.386719 C 207.703125 113.667969 206.992188 114.164062 206.570312 114.449219 C 210.390625 116.003906 214.214844 117.777344 217.753906 119.902344 C 211.027344 121.175781 204.160156 120.394531 197.4375 119.476562 C 199.488281 121.246094 201.542969 123.015625 203.523438 124.785156 C 192.90625 123.796875 182.570312 120.539062 173.648438 114.730469 C 165.226562 109.421875 155.171875 108.214844 145.472656 106.585938 Z M 145.472656 106.585938 " fill-opacity="1" fill-rule="nonzero"/><path fill="#1f1d36" d="M 103.5625 134.0625 C 116.449219 123.015625 131.457031 110.976562 149.4375 111.6875 C 157.367188 111.617188 165.011719 114.164062 171.738281 118.199219 C 183.417969 125.28125 196.800781 129.105469 210.25 130.664062 C 205.222656 135.265625 199.136719 138.453125 192.835938 140.859375 C 199.277344 142.984375 206.144531 142.984375 212.871094 142.984375 C 208.125 156.441406 206.710938 170.53125 205.789062 184.625 C 204.445312 180.019531 204.089844 175.207031 204.230469 170.460938 C 196.585938 176.761719 186.390625 178.535156 176.765625 178.746094 C 186.535156 174.496094 195.3125 168.195312 201.96875 159.910156 C 194.605469 160.121094 186.957031 160.191406 180.089844 157.21875 C 167.066406 152.261719 158.996094 139.65625 146.394531 133.921875 C 132.660156 128.46875 117.507812 130.804688 103.5625 134.0625 Z M 103.5625 134.0625 " fill-opacity="1" fill-rule="nonzero"/><path fill="#1f1d36" d="M 160.835938 177.613281 C 165.71875 179.878906 171.171875 180.089844 176.339844 181.648438 C 163.453125 185.898438 149.722656 187.953125 136.128906 187.316406 C 127.917969 186.960938 119.84375 185.121094 111.5625 185.898438 C 103.421875 186.253906 95.703125 188.589844 88.058594 191.136719 C 96.695312 181.792969 107.386719 173.789062 119.988281 171.097656 C 128.625 168.691406 137.613281 169.257812 146.324219 170.671875 C 138.253906 163.59375 127.207031 159.769531 116.449219 160.6875 C 109.296875 160.902344 102.289062 162.386719 95.210938 163.449219 C 104.835938 154.953125 117.4375 150.492188 130.109375 149.289062 C 121.121094 143.765625 110.429688 142.066406 100.023438 141.5 L 107.597656 139.375 C 121.191406 136.1875 136.339844 135.550781 148.589844 143.128906 C 156.585938 147.375 161.828125 155.378906 170.109375 158.988281 C 177.046875 162.460938 184.765625 163.804688 192.339844 164.371094 C 186.886719 168.691406 181.4375 173.433594 174.570312 175.347656 C 170.109375 176.480469 165.4375 176.90625 160.835938 177.613281 Z M 160.835938 177.613281 " fill-opacity="1" fill-rule="nonzero"/><path fill="#1f1d36" d="M 198.285156 240.210938 C 188.65625 231.078125 184.621094 217.339844 185.542969 204.378906 C 185.542969 193.332031 192.195312 183.703125 200.410156 176.835938 C 201.402344 184.410156 204.019531 191.632812 207.984375 198.148438 C 208.90625 189.792969 210.390625 181.082031 215.628906 174.144531 C 216.976562 186.960938 225.046875 197.722656 234.957031 205.441406 C 242.53125 212.242188 252.300781 216.066406 259.734375 223.21875 C 268.511719 231.429688 275.097656 242.265625 277.644531 254.089844 C 277.644531 254.089844 264.476562 241.769531 256.335938 239.929688 C 246.566406 237.734375 236.796875 235.253906 227.878906 230.367188 C 234.601562 239.148438 243.382812 246.089844 252.300781 252.535156 C 244.371094 252.460938 236.160156 253.171875 228.515625 250.691406 C 219.734375 248 211.171875 243.964844 204.375 237.664062 C 198.355469 231.855469 196.089844 223.5 194.957031 215.5 C 193.542969 223.996094 196.160156 232.140625 198.285156 240.210938 Z M 198.285156 240.210938 " fill-opacity="1" fill-rule="nonzero"/><path fill="#1f1d36" d="M 312.902344 297.925781 C 304.972656 298.703125 296.832031 297.785156 289.46875 294.597656 C 281.824219 291.269531 276.160156 284.613281 268.371094 281.707031 C 249.824219 274.132812 229.152344 279.511719 210.109375 274.484375 C 198.640625 271.371094 190.5 262.304688 184.054688 252.816406 C 184.269531 258.058594 185.332031 263.15625 185.96875 268.324219 C 170.960938 253.808594 170.675781 230.722656 177.1875 212.171875 C 179.667969 220.949219 182.003906 230.296875 188.234375 237.308594 C 192.125 242.335938 197.367188 245.949219 202.746094 249.132812 C 202.179688 246.160156 201.542969 243.328125 200.976562 240.355469 C 201.402344 241.0625 202.179688 242.40625 202.605469 243.117188 C 218.53125 259.121094 243.027344 258.695312 263.839844 256.144531 C 258.460938 251.328125 252.726562 246.9375 247.417969 241.980469 C 256.972656 244.742188 267.308594 247.789062 273.679688 256.074219 L 275.734375 258.480469 C 283.167969 267.757812 291.238281 276.609375 301.078125 283.40625 C 296.832031 283.054688 292.582031 282.488281 288.265625 282.347656 C 295.0625 289.570312 303.980469 294.101562 312.902344 297.925781 Z M 312.902344 297.925781 " fill-opacity="1" fill-rule="nonzero"/><path fill="#1f1d36" d="M 173.222656 195.882812 C 175.914062 188.304688 183.066406 183.632812 190.003906 180.304688 C 180.019531 196.589844 170.675781 214.011719 168.550781 233.34375 C 166.429688 220.738281 168.695312 207.707031 173.222656 195.882812 Z M 173.222656 195.882812 " fill-opacity="1" fill-rule="nonzero"/><path fill="#1f1d36" d="M 140.234375 224.207031 C 148.164062 209.480469 158.570312 195.386719 173.152344 186.675781 C 167.984375 198.148438 166.355469 210.964844 160.339844 222.15625 C 150.710938 242.691406 131.242188 257.914062 109.367188 263.367188 C 113.332031 259.472656 118.429688 256.78125 122.183594 252.535156 C 129.757812 244.175781 135.066406 234.121094 140.234375 224.207031 Z M 140.234375 224.207031 " fill-opacity="1" fill-rule="nonzero"/><path fill="#1f1d36" d="M 138.890625 195.457031 C 146.746094 190.359375 156.375 189.226562 165.4375 188.09375 C 151.417969 195.671875 145.191406 211.390625 132.941406 220.878906 C 126.21875 226.050781 117.792969 227.679688 109.792969 229.449219 C 114.109375 225.90625 118.996094 222.792969 121.96875 217.90625 C 127.136719 210.1875 130.960938 200.980469 138.890625 195.457031 Z M 138.890625 195.457031 " fill-opacity="1" fill-rule="nonzero"/><g clip-path="url(#324943caa0)"><path fill="#1f1d36" d="M 115.242188 194.609375 C 122.324219 190.5 130.820312 190.644531 138.746094 190.925781 C 132.375 194.539062 126.5 199.140625 122.253906 205.160156 C 117.582031 210.683594 114.820312 218.332031 107.882812 221.730469 C 99.03125 226.191406 88.554688 227.820312 78.855469 226.191406 C 85.015625 223.925781 91.386719 221.023438 95.28125 215.425781 C 100.945312 207.636719 106.394531 199.070312 115.242188 194.609375 Z M 115.242188 194.609375 " fill-opacity="1" fill-rule="nonzero"/></g><path fill="#1f1d36" d="M 111.5625 234.6875 C 118.640625 233.203125 125.011719 229.589844 131.386719 226.261719 C 124.09375 247.292969 101.863281 259.898438 80.273438 259.402344 C 87.632812 255.789062 94.570312 251.1875 99.738281 244.746094 C 103.421875 241.132812 106.039062 235.609375 111.5625 234.6875 Z M 111.5625 234.6875 " fill-opacity="1" fill-rule="nonzero"/><g clip-path="url(#052307cfdd)"><path fill="#1f1d36" d="M 169.1875 234.617188 C 169.046875 241.984375 167.136719 249.277344 167.632812 256.640625 C 167.488281 267.617188 170.25 279.019531 177.472656 287.445312 C 181.578125 292.261719 187.171875 295.234375 192.480469 298.492188 C 203.027344 305.078125 211.949219 314.777344 215.699219 326.816406 C 204.089844 317.257812 189.011719 314.210938 175.136719 309.679688 C 164.871094 306.421875 157.863281 296.578125 156.800781 286.027344 C 155.03125 268.113281 161.402344 250.480469 169.1875 234.617188 Z M 169.1875 234.617188 " fill-opacity="1" fill-rule="nonzero"/></g><path fill="#1f1d36" d="M 175.703125 264.5 C 181.011719 271.300781 186.816406 277.957031 194.886719 281.566406 C 194.25 277.105469 193.1875 272.714844 192.339844 268.324219 C 202.039062 279.300781 217.328125 280.929688 230.425781 285.601562 C 244.867188 290.914062 254.921875 304.15625 259.238281 318.601562 C 242.601562 306.917969 222.640625 302.03125 203.664062 295.730469 C 189.71875 290.914062 178.675781 278.875 175.703125 264.5 Z M 175.703125 264.5 " fill-opacity="1" fill-rule="nonzero"/><path fill="#1f1d36" d="M 241.824219 283.054688 C 252.160156 283.40625 262.921875 284.398438 272.195312 289.425781 C 280.691406 293.675781 286.070312 302.03125 294.496094 306.351562 C 306.882812 313.078125 321.609375 315.699219 335.554688 313.574219 C 327.484375 320.445312 316.300781 321.929688 306.105469 322.851562 C 293.644531 323.347656 279.34375 322 270.070312 312.652344 C 261.292969 302.171875 253.503906 290.558594 241.824219 283.054688 Z M 241.824219 283.054688 " fill-opacity="1" fill-rule="nonzero"/><path fill="#1f1d36" d="M 162.675781 230.226562 C 141.011719 259.191406 123.101562 277.601562 110.996094 279.441406 C 140.304688 284.542969 155.03125 263.652344 162.675781 230.226562 Z M 162.675781 230.226562 " fill-opacity="1" fill-rule="nonzero"/></svg>